<svg width="899" height="232" viewBox="0 0 899 232" fill="none" xmlns="http://www.w3.org/2000/svg">
<path d="M34 214C34 222.837 26.8366 230 18 230C9.16344 230 2 222.837 2 214C2 205.163 9.16344 198 18 198C26.8366 198 34 205.163 34 214Z" fill="#FC9F5B"/>
<path d="M108 85L109.285 83.4674L107.586 82.0431L106.344 83.8791L108 85ZM207 168L205.715 169.533L207.014 170.622L208.302 169.519L207 168ZM291 96L291.951 94.2404L290.742 93.5873L289.698 94.4815L291 96ZM378 143L377.049 144.76L378.216 145.39L379.251 144.561L378 143ZM504 42L504.551 40.0773L503.556 39.7925L502.749 40.4395L504 42ZM710 101L709.449 102.923L710.196 103.136L710.891 102.791L710 101ZM898.896 8.63652C899.248 7.58938 898.684 6.45553 897.637 6.10399L880.572 0.37534C879.525 0.0238008 878.391 0.587694 878.04 1.63483C877.688 2.68197 878.252 3.81582 879.299 4.16736L894.467 9.25949L889.375 24.4276C889.024 25.4747 889.588 26.6085 890.635 26.9601C891.682 27.3116 892.816 26.7477 893.167 25.7006L898.896 8.63652ZM34 214H32C32 221.732 25.732 228 18 228V230V232C27.9411 232 36 223.941 36 214H34ZM18 230V228C10.268 228 4 221.732 4 214H2H0C0 223.941 8.05887 232 18 232V230ZM2 214H4C4 206.268 10.268 200 18 200V198V196C8.05887 196 0 204.059 0 214H2ZM18 198V200C25.732 200 32 206.268 32 214H34H36C36 204.059 27.9411 196 18 196V198ZM18 218L19.6564 219.121L109.656 86.1209L108 85L106.344 83.8791L16.3436 216.879L18 218ZM108 85L106.715 86.5326L205.715 169.533L207 168L208.285 166.467L109.285 83.4674L108 85ZM207 168L208.302 169.519L292.302 97.5185L291 96L289.698 94.4815L205.698 166.481L207 168ZM291 96L290.049 97.7596L377.049 144.76L378 143L378.951 141.24L291.951 94.2404L291 96ZM378 143L379.251 144.561L505.251 43.5605L504 42L502.749 40.4395L376.749 141.439L378 143ZM504 42L503.449 43.9227L709.449 102.923L710 101L710.551 99.0773L504.551 40.0773L504 42ZM710 101L710.891 102.791L897.891 9.79077L897 8L896.109 6.20923L709.109 99.2092L710 101Z" fill="#FC9F5B"/>
</svg>
