<svg width="298" height="310" viewBox="0 0 298 310" fill="none" xmlns="http://www.w3.org/2000/svg">
<path d="M66.4101 280.412C72.6916 286.627 72.7453 296.757 66.5302 303.039C60.3151 309.32 50.1846 309.374 43.9031 303.159C37.6217 296.944 37.5679 286.813 43.783 280.532C49.9981 274.25 60.1286 274.197 66.4101 280.412Z" fill="#FC9F5B"/>
<path d="M4.89971 197.148L5.59564 195.273L0.587541 193.414L3.1435 198.105L4.89971 197.148ZM51 160L51 158L47.6339 158L49.2435 160.956L51 160ZM88.0232 81.2735L88.4956 79.3301L82.9072 77.9716L86.4469 82.5045L88.0232 81.2735ZM244 64.5L243.158 66.314L244.596 66.9816L245.574 65.734L244 64.5ZM294.985 1.75961C294.853 0.663046 293.856 -0.118263 292.76 0.0145045L274.89 2.17808C273.794 2.31084 273.012 3.30741 273.145 4.40397C273.278 5.50053 274.274 6.28184 275.371 6.14908L291.255 4.2259L293.178 20.1099C293.311 21.2065 294.307 21.9878 295.404 21.855C296.501 21.7222 297.282 20.7257 297.149 19.6291L294.985 1.75961ZM174 32L174.842 30.186L172.45 29.0754L172.026 31.6783L174 32ZM149.5 160L149.5 162L153.599 162L151.076 158.769L149.5 160ZM163 99.5L162.528 101.443L164.627 101.954L164.974 99.8217L163 99.5ZM88.0232 228L87.3273 229.875L92.3328 231.733L89.7797 227.044L88.0232 228ZM66.4101 280.412L65.0034 281.834C70.4997 287.272 70.5468 296.136 65.1085 301.632L66.5302 303.039L67.9519 304.446C74.9439 297.379 74.8835 285.982 67.8168 278.99L66.4101 280.412ZM66.5302 303.039L65.1085 301.632C59.6703 307.129 50.8061 307.176 45.3098 301.737L43.9031 303.159L42.4964 304.581C49.5631 311.573 60.9599 311.512 67.9519 304.446L66.5302 303.039ZM43.9031 303.159L45.3098 301.737C39.8135 296.299 39.7665 287.435 45.2047 281.939L43.783 280.532L42.3613 279.125C35.3693 286.192 35.4298 297.589 42.4964 304.581L43.9031 303.159ZM43.783 280.532L45.2047 281.939C50.643 276.442 59.5071 276.395 65.0034 281.834L66.4101 280.412L67.8168 278.99C60.7501 271.998 49.3533 272.059 42.3613 279.125L43.783 280.532ZM58 294.599L59.7562 293.642L6.65591 196.191L4.89971 197.148L3.1435 198.105L56.2438 295.556L58 294.599ZM244 64.5L245.574 65.734L294.574 3.23398L293 2L291.426 0.76603L242.426 63.266L244 64.5ZM174 32L173.158 33.814L243.158 66.314L244 64.5L244.842 62.686L174.842 30.186L174 32ZM51 160L51 162L149.5 162L149.5 160L149.5 158L51 158L51 160ZM149.5 160L151.076 158.769L89.5995 80.0426L88.0232 81.2735L86.4469 82.5045L147.924 161.231L149.5 160ZM88.0232 81.2735L87.5508 83.2169L162.528 101.443L163 99.5L163.472 97.5566L88.4956 79.3301L88.0232 81.2735ZM163 99.5L164.974 99.8217L175.974 32.3217L174 32L172.026 31.6783L161.026 99.1783L163 99.5ZM4.89971 197.148L4.20378 199.023L87.3273 229.875L88.0232 228L88.7191 226.125L5.59564 195.273L4.89971 197.148ZM88.0232 228L89.7797 227.044L52.7566 159.044L51 160L49.2435 160.956L86.2667 228.956L88.0232 228Z" fill="#FC9F5B"/>
</svg>
